<?xml version="1.0" encoding="utf-8"?>
<svg version="1.1" xmlns:xlink="http://www.w3.org/1999/xlink" width="32px" height="31px" xmlns="http://www.w3.org/2000/svg">
  <g transform="matrix(1 0 0 1 -428 -65 )">
    <path d="M 31.6607142857143 14.7215401785714  C 31.8869047619048 14.940662202381  32 15.2001488095238  32 15.5  C 32 15.7998511904762  31.8869047619048 16.059337797619  31.6607142857143 16.2784598214286  L 27.0892857142857 20.70703125  C 26.8630952380952 20.9261532738095  26.5952380952381 21.0357142857143  26.2857142857143 21.0357142857143  C 25.9761904761905 21.0357142857143  25.7083333333333 20.9261532738095  25.4821428571429 20.70703125  C 25.2559523809524 20.4879092261905  25.1428571428571 20.2284226190476  25.1428571428571 19.9285714285714  L 25.1428571428571 17.7142857142857  L 18.2857142857143 17.7142857142857  L 18.2857142857143 24.3571428571429  L 20.5714285714286 24.3571428571429  C 20.8809523809524 24.3571428571429  21.1488095238095 24.4667038690476  21.375 24.6858258928571  C 21.6011904761905 24.9049479166667  21.7142857142857 25.1644345238095  21.7142857142857 25.4642857142857  C 21.7142857142857 25.7641369047619  21.6011904761905 26.0236235119048  21.375 26.2427455357143  L 16.8035714285714 30.6713169642857  C 16.577380952381 30.8904389880952  16.3095238095238 31  16 31  C 15.6904761904762 31  15.422619047619 30.8904389880952  15.1964285714286 30.6713169642857  L 10.625 26.2427455357143  C 10.3988095238095 26.0236235119048  10.2857142857143 25.7641369047619  10.2857142857143 25.4642857142857  C 10.2857142857143 25.1644345238095  10.3988095238095 24.9049479166667  10.625 24.6858258928571  C 10.8511904761905 24.4667038690476  11.1190476190476 24.3571428571429  11.4285714285714 24.3571428571429  L 13.7142857142857 24.3571428571429  L 13.7142857142857 17.7142857142857  L 6.85714285714286 17.7142857142857  L 6.85714285714286 19.9285714285714  C 6.85714285714286 20.2284226190476  6.74404761904762 20.4879092261905  6.51785714285714 20.70703125  C 6.29166666666667 20.9261532738095  6.02380952380952 21.0357142857143  5.71428571428571 21.0357142857143  C 5.40476190476191 21.0357142857143  5.13690476190476 20.9261532738095  4.91071428571429 20.70703125  L 0.339285714285714 16.2784598214286  C 0.113095238095238 16.059337797619  0 15.7998511904762  0 15.5  C 0 15.2001488095238  0.113095238095238 14.940662202381  0.339285714285714 14.7215401785714  L 4.91071428571429 10.29296875  C 5.13690476190476 10.0738467261905  5.40476190476191 9.96428571428571  5.71428571428571 9.96428571428571  C 6.02380952380952 9.96428571428571  6.29166666666667 10.0738467261905  6.51785714285714 10.29296875  C 6.74404761904762 10.5120907738095  6.85714285714286 10.7715773809524  6.85714285714286 11.0714285714286  L 6.85714285714286 13.2857142857143  L 13.7142857142857 13.2857142857143  L 13.7142857142857 6.64285714285714  L 11.4285714285714 6.64285714285714  C 11.1190476190476 6.64285714285714  10.8511904761905 6.53329613095238  10.625 6.31417410714286  C 10.3988095238095 6.09505208333333  10.2857142857143 5.83556547619047  10.2857142857143 5.53571428571429  C 10.2857142857143 5.23586309523809  10.3988095238095 4.97637648809524  10.625 4.75725446428571  L 15.1964285714286 0.328683035714287  C 15.422619047619 0.109561011904765  15.6904761904762 0  16 0  C 16.3095238095238 0  16.577380952381 0.109561011904765  16.8035714285714 0.328683035714287  L 21.375 4.75725446428571  C 21.6011904761905 4.97637648809524  21.7142857142857 5.23586309523809  21.7142857142857 5.53571428571429  C 21.7142857142857 5.83556547619047  21.6011904761905 6.09505208333333  21.375 6.31417410714286  C 21.1488095238095 6.53329613095238  20.8809523809524 6.64285714285714  20.5714285714286 6.64285714285714  L 18.2857142857143 6.64285714285714  L 18.2857142857143 13.2857142857143  L 25.1428571428571 13.2857142857143  L 25.1428571428571 11.0714285714286  C 25.1428571428571 10.7715773809524  25.2559523809524 10.5120907738095  25.4821428571429 10.29296875  C 25.7083333333333 10.0738467261905  25.9761904761905 9.96428571428571  26.2857142857143 9.96428571428571  C 26.5952380952381 9.96428571428571  26.8630952380952 10.0738467261905  27.0892857142857 10.29296875  L 31.6607142857143 14.7215401785714  Z " fill-rule="nonzero" fill="#4b7902" stroke="none" transform="matrix(1 0 0 1 428 65 )" />
  </g>
</svg>