<?xml version="1.0" encoding="utf-8"?>
<svg version="1.1" xmlns:xlink="http://www.w3.org/1999/xlink" width="13px" height="14px" xmlns="http://www.w3.org/2000/svg">
  <g transform="matrix(1 0 0 1 -235 -11 )">
    <path d="M 10.5532670454545 6.453125  C 10.6086647727273 6.51278409090909  10.6363636363636 6.58901515151515  10.6363636363636 6.68181818181818  L 10.6363636363636 7.31818181818182  C 10.6363636363636 7.41098484848485  10.6086647727273 7.48721590909091  10.5532670454545 7.546875  C 10.4978693181818 7.60653409090909  10.4270833333333 7.63636363636364  10.3409090909091 7.63636363636364  L 7.09090909090909 7.63636363636364  L 7.09090909090909 11.1363636363636  C 7.09090909090909 11.2291666666667  7.06321022727273 11.3053977272727  7.0078125 11.3650568181818  C 6.95241477272727 11.4247159090909  6.88162878787879 11.4545454545455  6.79545454545455 11.4545454545455  L 6.20454545454546 11.4545454545455  C 6.11837121212121 11.4545454545455  6.04758522727273 11.4247159090909  5.9921875 11.3650568181818  C 5.93678977272727 11.3053977272727  5.90909090909091 11.2291666666667  5.90909090909091 11.1363636363636  L 5.90909090909091 7.63636363636364  L 2.65909090909091 7.63636363636364  C 2.57291666666667 7.63636363636364  2.50213068181818 7.60653409090909  2.44673295454545 7.546875  C 2.39133522727273 7.48721590909091  2.36363636363636 7.41098484848485  2.36363636363636 7.31818181818182  L 2.36363636363636 6.68181818181818  C 2.36363636363636 6.58901515151515  2.39133522727273 6.51278409090909  2.44673295454545 6.453125  C 2.50213068181818 6.39346590909091  2.57291666666667 6.36363636363636  2.65909090909091 6.36363636363636  L 5.90909090909091 6.36363636363636  L 5.90909090909091 2.86363636363636  C 5.90909090909091 2.77083333333333  5.93678977272727 2.69460227272727  5.9921875 2.63494318181818  C 6.04758522727273 2.57528409090909  6.11837121212121 2.54545454545455  6.20454545454546 2.54545454545455  L 6.79545454545455 2.54545454545455  C 6.88162878787879 2.54545454545455  6.95241477272727 2.57528409090909  7.0078125 2.63494318181818  C 7.06321022727273 2.69460227272727  7.09090909090909 2.77083333333333  7.09090909090909 2.86363636363636  L 7.09090909090909 6.36363636363636  L 10.3409090909091 6.36363636363636  C 10.4270833333333 6.36363636363636  10.4978693181818 6.39346590909091  10.5532670454545 6.453125  Z M 11.3842329545455 12.2599431818182  C 11.6735321969697 11.9483901515151  11.8181818181818 11.5738636363636  11.8181818181818 11.1363636363636  L 11.8181818181818 2.86363636363636  C 11.8181818181818 2.42613636363636  11.6735321969697 2.05160984848485  11.3842329545455 1.74005681818182  C 11.0949337121212 1.42850378787879  10.7471590909091 1.27272727272727  10.3409090909091 1.27272727272727  L 2.65909090909091 1.27272727272727  C 2.25284090909091 1.27272727272727  1.90506628787879 1.42850378787879  1.61576704545455 1.74005681818182  C 1.3264678030303 2.05160984848485  1.18181818181818 2.42613636363636  1.18181818181818 2.86363636363636  L 1.18181818181818 11.1363636363636  C 1.18181818181818 11.5738636363636  1.3264678030303 11.9483901515151  1.61576704545455 12.2599431818182  C 1.90506628787879 12.5714962121212  2.25284090909091 12.7272727272727  2.65909090909091 12.7272727272727  L 10.3409090909091 12.7272727272727  C 10.7471590909091 12.7272727272727  11.0949337121212 12.5714962121212  11.3842329545455 12.2599431818182  Z M 12.2198153409091 0.840198863636364  C 12.7399384469697 1.40033143939394  13 2.0748106060606  13 2.86363636363636  L 13 11.1363636363636  C 13 11.9251893939394  12.7399384469697 12.5996685606061  12.2198153409091 13.1598011363636  C 11.6996922348485 13.7199337121212  11.0733901515152 14  10.3409090909091 14  L 2.65909090909091 14  C 1.92660984848485 14  1.30030776515152 13.7199337121212  0.780184659090909 13.1598011363636  C 0.260061553030303 12.5996685606061  0 11.9251893939394  0 11.1363636363636  L 0 2.86363636363636  C 0 2.0748106060606  0.260061553030303 1.40033143939394  0.780184659090909 0.840198863636364  C 1.30030776515152 0.280066287878787  1.92660984848485 0  2.65909090909091 0  L 10.3409090909091 0  C 11.0733901515152 0  11.6996922348485 0.280066287878787  12.2198153409091 0.840198863636364  Z " fill-rule="nonzero" fill="#000000" stroke="none" transform="matrix(1 0 0 1 235 11 )" />
  </g>
</svg>