<?xml version="1.0" encoding="utf-8"?>
<svg version="1.1" xmlns:xlink="http://www.w3.org/1999/xlink" width="12px" height="14px" xmlns="http://www.w3.org/2000/svg">
  <g transform="matrix(1 0 0 1 -258 -11 )">
    <path d="M 9.74147727272727 6.453125  C 9.79261363636364 6.51278409090909  9.81818181818182 6.58901515151515  9.81818181818182 6.68181818181818  L 9.81818181818182 7.31818181818182  C 9.81818181818182 7.41098484848485  9.79261363636364 7.48721590909091  9.74147727272727 7.546875  C 9.69034090909091 7.60653409090909  9.625 7.63636363636364  9.54545454545455 7.63636363636364  L 2.45454545454545 7.63636363636364  C 2.375 7.63636363636364  2.30965909090909 7.60653409090909  2.25852272727273 7.546875  C 2.20738636363636 7.48721590909091  2.18181818181818 7.41098484848485  2.18181818181818 7.31818181818182  L 2.18181818181818 6.68181818181818  C 2.18181818181818 6.58901515151515  2.20738636363636 6.51278409090909  2.25852272727273 6.453125  C 2.30965909090909 6.39346590909091  2.375 6.36363636363636  2.45454545454545 6.36363636363636  L 9.54545454545455 6.36363636363636  C 9.625 6.36363636363636  9.69034090909091 6.39346590909091  9.74147727272727 6.453125  Z M 10.5085227272727 12.2599431818182  C 10.7755681818182 11.9483901515151  10.9090909090909 11.5738636363636  10.9090909090909 11.1363636363636  L 10.9090909090909 2.86363636363636  C 10.9090909090909 2.42613636363636  10.7755681818182 2.05160984848485  10.5085227272727 1.74005681818182  C 10.2414772727273 1.42850378787879  9.92045454545455 1.27272727272727  9.54545454545455 1.27272727272727  L 2.45454545454545 1.27272727272727  C 2.07954545454545 1.27272727272727  1.75852272727273 1.42850378787879  1.49147727272727 1.74005681818182  C 1.22443181818182 2.05160984848485  1.09090909090909 2.42613636363636  1.09090909090909 2.86363636363636  L 1.09090909090909 11.1363636363636  C 1.09090909090909 11.5738636363636  1.22443181818182 11.9483901515151  1.49147727272727 12.2599431818182  C 1.75852272727273 12.5714962121212  2.07954545454545 12.7272727272727  2.45454545454545 12.7272727272727  L 9.54545454545455 12.7272727272727  C 9.92045454545455 12.7272727272727  10.2414772727273 12.5714962121212  10.5085227272727 12.2599431818182  Z M 11.2798295454545 0.840198863636364  C 11.7599431818182 1.40033143939394  12 2.0748106060606  12 2.86363636363636  L 12 11.1363636363636  C 12 11.9251893939394  11.7599431818182 12.5996685606061  11.2798295454545 13.1598011363636  C 10.7997159090909 13.7199337121212  10.2215909090909 14  9.54545454545455 14  L 2.45454545454545 14  C 1.77840909090909 14  1.20028409090909 13.7199337121212  0.720170454545455 13.1598011363636  C 0.240056818181818 12.5996685606061  0 11.9251893939394  0 11.1363636363636  L 0 2.86363636363636  C 0 2.0748106060606  0.240056818181818 1.40033143939394  0.720170454545455 0.840198863636364  C 1.20028409090909 0.280066287878787  1.77840909090909 0  2.45454545454545 0  L 9.54545454545455 0  C 10.2215909090909 0  10.7997159090909 0.280066287878787  11.2798295454545 0.840198863636364  Z " fill-rule="nonzero" fill="#000000" stroke="none" transform="matrix(1 0 0 1 258 11 )" />
  </g>
</svg>