<?xml version="1.0" encoding="utf-8"?>
<svg version="1.1" xmlns:xlink="http://www.w3.org/1999/xlink" width="37px" height="42px" xmlns="http://www.w3.org/2000/svg">
  <g transform="matrix(1 0 0 1 -235 -35 )">
    <path d="M 15.4166666666667 19.25  L 15.4166666666667 26.25  L 21.5833333333333 22.75  L 15.4166666666667 19.25  Z M 13 17.08984375  L 24 10.08984375  L 24 24.91015625  L 13 31.91015625  L 13 17.08984375  Z M 29.845703125 28.46484375  C 31.0180121527778 26.1861979166667  31.6041666666667 23.6979166666667  31.6041666666667 21  C 31.6041666666667 18.3020833333333  31.0180121527778 15.8138020833333  29.845703125 13.53515625  C 28.6733940972222 11.2565104166667  27.0835503472222 9.45182291666666  25.076171875 8.12109375  C 23.0687934027778 6.79036458333333  20.8767361111111 6.125  18.5 6.125  C 16.1232638888889 6.125  13.9312065972222 6.79036458333333  11.923828125 8.12109375  C 9.91644965277778 9.45182291666666  8.32660590277778 11.2565104166667  7.154296875 13.53515625  C 5.98198784722222 15.8138020833333  5.39583333333333 18.3020833333333  5.39583333333333 21  C 5.39583333333333 23.6979166666667  5.98198784722222 26.1861979166667  7.154296875 28.46484375  C 8.32660590277778 30.7434895833333  9.91644965277778 32.5481770833333  11.923828125 33.87890625  C 13.9312065972222 35.2096354166667  16.1232638888889 35.875  18.5 35.875  C 20.8767361111111 35.875  23.0687934027778 35.2096354166667  25.076171875 33.87890625  C 27.0835503472222 32.5481770833333  28.6733940972222 30.7434895833333  29.845703125 28.46484375  Z M 34.5188802083333 10.458984375  C 36.1729600694444 13.6764322916667  37 17.1901041666667  37 21  C 37 24.8098958333333  36.1729600694444 28.3235677083333  34.5188802083333 31.541015625  C 32.8648003472222 34.7584635416667  30.6205512152778 37.3059895833333  27.7861328125 39.18359375  C 24.9517144097222 41.0611979166667  21.8563368055556 42  18.5 42  C 15.1436631944444 42  12.0482855902778 41.0611979166667  9.2138671875 39.18359375  C 6.37944878472222 37.3059895833333  4.13519965277778 34.7584635416667  2.48111979166667 31.541015625  C 0.827039930555555 28.3235677083333  0 24.8098958333333  0 21  C 0 17.1901041666667  0.827039930555555 13.6764322916667  2.48111979166667 10.458984375  C 4.13519965277778 7.24153645833333  6.37944878472222 4.69401041666666  9.2138671875 2.81640625  C 12.0482855902778 0.93880208333333  15.1436631944444 0  18.5 0  C 21.8563368055556 0  24.9517144097222 0.93880208333333  27.7861328125 2.81640625  C 30.6205512152778 4.69401041666666  32.8648003472222 7.24153645833333  34.5188802083333 10.458984375  Z " fill-rule="nonzero" fill="#d7d7d7" stroke="none" fill-opacity="0.996078431372549" transform="matrix(1 0 0 1 235 35 )" />
  </g>
</svg>