<?xml version="1.0" encoding="utf-8"?>
<svg version="1.1" xmlns:xlink="http://www.w3.org/1999/xlink" width="389px" height="256px" xmlns="http://www.w3.org/2000/svg">
  <g transform="matrix(1 0 0 1 -336 -121 )">
    <path d="M 337 131  A 9 9 0 0 1 346 122 L 715 122  A 9 9 0 0 1 724 131 L 724 367  A 9 9 0 0 1 715 376 L 346 376  A 9 9 0 0 1 337 367 L 337 131  Z " fill-rule="nonzero" fill="#f2f2f2" stroke="none" fill-opacity="0.996078431372549" />
    <path d="M 336.5 131  A 9.5 9.5 0 0 1 346 121.5 L 715 121.5  A 9.5 9.5 0 0 1 724.5 131 L 724.5 367  A 9.5 9.5 0 0 1 715 376.5 L 346 376.5  A 9.5 9.5 0 0 1 336.5 367 L 336.5 131  Z " stroke-width="1" stroke="#797979" fill="none" stroke-opacity="0.745098039215686" />
  </g>
</svg>