<?xml version="1.0" encoding="utf-8"?>
<svg version="1.1" xmlns:xlink="http://www.w3.org/1999/xlink" width="33px" height="25px" xmlns="http://www.w3.org/2000/svg">
  <g transform="matrix(1 0 0 1 -672 -139 )">
    <path d="M 21.2142857142857 19.580078125  C 21.3738839285714 19.580078125  21.5150669642857 19.5258246527778  21.6378348214286 19.4173177083333  L 24.3264508928571 17.041015625  C 24.44921875 16.9325086805556  24.5106026785714 16.8077256944444  24.5106026785714 16.6666666666667  C 24.5106026785714 16.5256076388889  24.44921875 16.4008246527778  24.3264508928571 16.2923177083333  L 20.0357142857143 12.5  L 24.3264508928571 8.70768229166667  C 24.44921875 8.59917534722222  24.5106026785714 8.47439236111111  24.5106026785714 8.33333333333333  C 24.5106026785714 8.19227430555556  24.44921875 8.06749131944444  24.3264508928571 7.958984375  L 21.6378348214286 5.58268229166667  C 21.5150669642857 5.47417534722222  21.3738839285714 5.419921875  21.2142857142857 5.419921875  C 21.0546875 5.419921875  20.9135044642857 5.47417534722222  20.7907366071429 5.58268229166667  L 16.5 9.375  L 12.2092633928571 5.58268229166667  C 12.0864955357143 5.47417534722222  11.9453125 5.419921875  11.7857142857143 5.419921875  C 11.6261160714286 5.419921875  11.4849330357143 5.47417534722222  11.3621651785714 5.58268229166667  L 8.67354910714286 7.958984375  C 8.55078125 8.06749131944444  8.48939732142857 8.19227430555556  8.48939732142857 8.33333333333333  C 8.48939732142857 8.47439236111111  8.55078125 8.59917534722222  8.67354910714286 8.70768229166667  L 12.9642857142857 12.5  L 8.67354910714286 16.2923177083333  C 8.55078125 16.4008246527778  8.48939732142857 16.5256076388889  8.48939732142857 16.6666666666667  C 8.48939732142857 16.8077256944444  8.55078125 16.9325086805556  8.67354910714286 17.041015625  L 11.3621651785714 19.4173177083333  C 11.4849330357143 19.5258246527778  11.6261160714286 19.580078125  11.7857142857143 19.580078125  C 11.9453125 19.580078125  12.0864955357143 19.5258246527778  12.2092633928571 19.4173177083333  L 16.5 15.625  L 20.7907366071429 19.4173177083333  C 20.9135044642857 19.5258246527778  21.0546875 19.580078125  21.2142857142857 19.580078125  Z M 32.1344866071429 0.764973958333334  C 32.7114955357143 1.27495659722222  33 1.88802083333333  33 2.60416666666667  L 33 22.3958333333333  C 33 23.1119791666667  32.7114955357143 23.7250434027778  32.1344866071429 24.2350260416667  C 31.5574776785714 24.7450086805556  30.8638392857143 25  30.0535714285714 25  L 2.94642857142857 25  C 2.13616071428571 25  1.44252232142857 24.7450086805556  0.865513392857143 24.2350260416667  C 0.288504464285714 23.7250434027778  0 23.1119791666667  0 22.3958333333333  L 0 2.60416666666667  C 0 1.88802083333333  0.288504464285714 1.27495659722222  0.865513392857143 0.764973958333334  C 1.44252232142857 0.254991319444442  2.13616071428571 0  2.94642857142857 0  L 30.0535714285714 0  C 30.8638392857143 0  31.5574776785714 0.254991319444442  32.1344866071429 0.764973958333334  Z " fill-rule="nonzero" fill="#d9001b" stroke="none" transform="matrix(1 0 0 1 672 139 )" />
  </g>
</svg>