<?xml version="1.0" encoding="utf-8"?>
<svg version="1.1" xmlns:xlink="http://www.w3.org/1999/xlink" width="50px" height="50px" xmlns="http://www.w3.org/2000/svg">
  <g transform="matrix(1 0 0 1 -93 -1163 )">
    <path d="M 41.4804469273743 1.50669642857143  C 42.5791433891993 0.502232142857145  43.7895716945996 0  45.1117318435754 0  C 46.415270018622 0  47.5558659217877 0.43247767857143  48.5335195530726 1.29743303571428  C 49.5111731843575 2.16238839285715  50 3.24590773809524  50 4.54799107142857  C 50 5.71986607142857  49.5810055865922 7.12425595238095  48.7430167597765 8.76116071428572  C 42.56052141527 20.4613095238095  38.2309124767225 27.4553571428571  35.7541899441341 29.7433035714286  C 33.9478584729981 31.4360119047619  31.9180633147114 32.2823660714286  29.6648044692737 32.2823660714286  C 27.3184357541899 32.2823660714286  25.3026070763501 31.4220610119048  23.6173184357542 29.7014508928571  C 21.9320297951583 27.9808407738095  21.0893854748603 25.9393601190476  21.0893854748603 23.5770089285714  C 21.0893854748603 21.196056547619  21.9459962756052 19.2243303571429  23.659217877095 17.6618303571429  L 41.4804469273743 1.50669642857143  Z M 16.2290502793296 29.1434151785714  C 17.1973929236499 29.00390625  18.3612662942272 28.90625  19.7206703910615 28.8504464285714  C 20.4469273743017 30.2641369047619  21.4385474860335 31.4732142857143  22.695530726257 32.4776785714286  C 23.9525139664804 33.4821428571429  25.3538175046555 34.1889880952381  26.8994413407821 34.5982142857143  L 26.927374301676 36.5792410714286  C 27.0018621973929 40.5412946428571  25.7960893854749 43.7686011904762  23.3100558659218 46.2611607142857  C 20.8240223463687 48.7537202380952  17.5791433891993 50  13.5754189944134 50  C 11.2849162011173 50  9.25512104283054 49.5675223214286  7.48603351955307 48.7025669642857  C 5.71694599627561 47.8376116071429  4.29702048417132 46.6517857142857  3.22625698324022 45.1450892857143  C 2.15549348230913 43.6383928571429  1.35009310986965 41.9363839285714  0.810055865921788 40.0390625  C 0.270018621973929 38.1417410714286  0 36.0956101190476  0 33.9006696428571  C 0.130353817504656 33.9936755952381  0.512104283054004 34.272693452381  1.14525139664804 34.7377232142857  C 1.77839851024209 35.2027529761905  2.35567970204842 35.6166294642857  2.87709497206704 35.9793526785714  C 3.39851024208566 36.3420758928571  3.94785847299814 36.6815476190476  4.52513966480447 36.9977678571429  C 5.1024208566108 37.3139880952381  5.53072625698324 37.4720982142857  5.81005586592179 37.4720982142857  C 6.57355679702049 37.4720982142857  7.08566108007449 37.1279761904762  7.3463687150838 36.4397321428571  C 7.81191806331471 35.2120535714286  8.34729981378026 34.1657366071429  8.95251396648045 33.30078125  C 9.55772811918063 32.4358258928571  10.2048417132216 31.7289806547619  10.8938547486034 31.1802455357143  C 11.5828677839851 30.6315104166667  12.4022346368715 30.1897321428571  13.3519553072626 29.8549107142857  C 14.3016759776536 29.5200892857143  15.2607076350093 29.2829241071429  16.2290502793296 29.1434151785714  Z " fill-rule="nonzero" fill="#b8741a" stroke="none" transform="matrix(1 0 0 1 93 1163 )" />
  </g>
</svg>