<?xml version="1.0" encoding="utf-8"?>
<svg version="1.1" xmlns:xlink="http://www.w3.org/1999/xlink" width="389px" height="256px" xmlns="http://www.w3.org/2000/svg">
  <g transform="matrix(1 0 0 1 -336 -103 )">
    <path d="M 337 113  A 9 9 0 0 1 346 104 L 715 104  A 9 9 0 0 1 724 113 L 724 349  A 9 9 0 0 1 715 358 L 346 358  A 9 9 0 0 1 337 349 L 337 113  Z " fill-rule="nonzero" fill="#f2f2f2" stroke="none" fill-opacity="0.996078431372549" />
    <path d="M 336.5 113  A 9.5 9.5 0 0 1 346 103.5 L 715 103.5  A 9.5 9.5 0 0 1 724.5 113 L 724.5 349  A 9.5 9.5 0 0 1 715 358.5 L 346 358.5  A 9.5 9.5 0 0 1 336.5 349 L 336.5 113  Z " stroke-width="1" stroke="#797979" fill="none" stroke-opacity="0.745098039215686" />
  </g>
</svg>