<?xml version="1.0" encoding="utf-8"?>
<svg version="1.1" xmlns:xlink="http://www.w3.org/1999/xlink" width="17px" height="18px" xmlns="http://www.w3.org/2000/svg">
  <g transform="matrix(1 0 0 1 -318 -350 )">
    <path d="M 8.5 8.47125  C 8.71113782051282 8.47125  8.92908653846154 8.5125  9.15384615384615 8.595  L 9.15384615384615 15.12  C 9.15384615384615 15.9  8.89503205128205 16.575  8.37740384615385 17.145  C 7.85977564102564 17.715  7.24679487179487 18  6.53846153846154 18  C 5.83012820512821 18  5.21714743589744 17.715  4.69951923076923 17.145  C 4.18189102564103 16.575  3.92307692307692 15.9  3.92307692307692 15.12  C 3.92307692307692 14.925  3.98778044871795 14.75625  4.1171875 14.61375  C 4.24659455128205 14.47125  4.39983974358974 14.4  4.57692307692308 14.4  C 4.75400641025641 14.4  4.9072516025641 14.47125  5.03665865384615 14.61375  C 5.16606570512821 14.75625  5.23076923076923 14.925  5.23076923076923 15.12  C 5.23076923076923 15.495  5.36358173076923 15.82875  5.62920673076923 16.12125  C 5.89483173076923 16.41375  6.19791666666667 16.56  6.53846153846154 16.56  C 6.87900641025641 16.56  7.18209134615385 16.41375  7.44771634615385 16.12125  C 7.71334134615385 15.82875  7.84615384615385 15.495  7.84615384615385 15.12  L 7.84615384615385 8.595  C 8.07091346153846 8.5125  8.28886217948718 8.47125  8.5 8.47125  Z M 16.9897836538462 8.82  C 16.9965945512821 8.835  17 8.86125  17 8.89875  C 17 8.99625  16.9676482371795 9.080625  16.9029447115385 9.151875  C 16.8382411858974 9.223125  16.7616185897436 9.25875  16.6730769230769 9.25875  C 16.5981570512821 9.25875  16.5198317307692 9.22125  16.4381009615385 9.14625  C 16.1043669871795 8.80125  15.7876602564103 8.5425  15.4879807692308 8.37  C 15.1883012820513 8.1975  14.8409455128205 8.11125  14.4459134615385 8.11125  C 13.9827724358974 8.11125  13.546875 8.25  13.1382211538462 8.5275  C 12.7295673076923 8.805  12.3788060897436 9.16875  12.0859375 9.61875  C 12.0382612179487 9.69375  11.9786658653846 9.79875  11.9071514423077 9.93375  C 11.8356370192308 10.06875  11.7862580128205 10.15875  11.7590144230769 10.20375  C 11.6840945512821 10.33125  11.5887419871795 10.395  11.4729567307692 10.395  C 11.3503605769231 10.395  11.2516025641026 10.33125  11.1766826923077 10.20375  C 11.1494391025641 10.15875  11.1000600961538 10.06875  11.0285456730769 9.93375  C 10.95703125 9.79875  10.8974358974359 9.69375  10.8497596153846 9.61875  C 10.556891025641 9.16875  10.2078325320513 8.805  9.80258413461539 8.5275  C 9.39733573717949 8.25  8.96314102564103 8.11125  8.5 8.11125  C 8.03685897435897 8.11125  7.60266426282051 8.25  7.19741586538462 8.5275  C 6.79216746794872 8.805  6.44310897435898 9.16875  6.15024038461538 9.61875  C 6.1025641025641 9.69375  6.04296875 9.79875  5.97145432692308 9.93375  C 5.89993990384615 10.06875  5.8505608974359 10.15875  5.82331730769231 10.20375  C 5.74839743589744 10.33125  5.64963942307692 10.395  5.52704326923077 10.395  C 5.41125801282051 10.395  5.31590544871795 10.33125  5.24098557692308 10.20375  C 5.21374198717949 10.15875  5.16436298076923 10.06875  5.09284855769231 9.93375  C 5.02133413461538 9.79875  4.96173878205128 9.69375  4.9140625 9.61875  C 4.62119391025641 9.16875  4.27043269230769 8.805  3.86177884615385 8.5275  C 3.453125 8.25  3.01722756410256 8.11125  2.55408653846154 8.11125  C 2.15905448717949 8.11125  1.81169871794872 8.1975  1.51201923076923 8.37  C 1.21233974358974 8.5425  0.895633012820513 8.80125  0.561899038461538 9.14625  C 0.480168269230769 9.22125  0.401842948717949 9.25875  0.326923076923077 9.25875  C 0.23838141025641 9.25875  0.161758814102564 9.223125  0.0970552884615385 9.151875  C 0.0323517628205128 9.080625  0 8.99625  0 8.89875  C 0 8.86125  0.00340544871794872 8.835  0.0102163461538462 8.82  C 0.316706730769231 7.4475  0.904146634615385 6.249375  1.77253605769231 5.225625  C 2.64092548076923 4.201875  3.65574919871795 3.435  4.81700721153846 2.925  C 5.97826522435898 2.415  7.20592948717949 2.16  8.5 2.16  C 9.45352564102564 2.16  10.3883213141026 2.31  11.3043870192308 2.61  C 12.220452724359 2.91  13.0598958333333 3.335625  13.8227163461538 3.886875  C 14.5855368589744 4.438125  15.2478966346154 5.139375  15.8097956730769 5.990625  C 16.3716947115385 6.841875  16.7650240384615 7.785  16.9897836538462 8.82  Z M 8.95973557692308 0.213749999999999  C 9.08914262820513 0.356249999999998  9.15384615384615 0.524999999999998  9.15384615384615 0.720000000000001  L 9.15384615384615 1.8225  C 8.86778846153846 1.8075  8.64983974358974 1.8  8.5 1.8  C 8.35016025641026 1.8  8.13221153846154 1.8075  7.84615384615385 1.8225  L 7.84615384615385 0.720000000000001  C 7.84615384615385 0.524999999999998  7.91085737179487 0.356249999999998  8.04026442307692 0.213749999999999  C 8.16967147435897 0.0712499999999991  8.32291666666667 0  8.5 0  C 8.67708333333333 0  8.83032852564103 0.0712499999999991  8.95973557692308 0.213749999999999  Z " fill-rule="nonzero" fill="#000000" stroke="none" transform="matrix(1 0 0 1 318 350 )" />
  </g>
</svg>