<?xml version="1.0" encoding="utf-8"?>
<svg version="1.1" xmlns:xlink="http://www.w3.org/1999/xlink" width="13px" height="13px" xmlns="http://www.w3.org/2000/svg">
  <g transform="matrix(1 0 0 1 -511 -223 )">
    <path d="M 2.72516758074345 10.9902617163725  C 2.82551289863904 10.8900385473727  2.87568555758684 10.7713532156624  2.87568555758684 10.6342057212416  C 2.87568555758684 10.4970582268209  2.82551289863904 10.3783728951106  2.72516758074345 10.2781497261108  C 2.62482226284786 10.177926557111  2.50599228112939 10.1278149726111  2.36867763558806 10.1278149726111  C 2.23136299004672 10.1278149726111  2.11253300832826 10.177926557111  2.01218769043266 10.2781497261108  C 1.91184237253707 10.3783728951106  1.86166971358928 10.4970582268209  1.86166971358928 10.6342057212416  C 1.86166971358928 10.7713532156624  1.91184237253707 10.8900385473727  2.01218769043266 10.9902617163725  C 2.11253300832826 11.0904848853723  2.23136299004672 11.1405964698722  2.36867763558806 11.1405964698722  C 2.50599228112939 11.1405964698722  2.62482226284786 11.0904848853723  2.72516758074345 10.9902617163725  Z M 6.602985984156 6.40505173463177  C 7.00172658947796 6.80330695881518  7.45988218565915 7.10529519172246  7.97745277269957 7.31101643335362  L 2.57464960390006 12.707242848448  C 2.3792403006297 12.902414282816  2.14158033719277 13  1.86166971358928 13  C 1.5870404225066 13  1.34673979280926 12.902414282816  1.14076782449726 12.707242848448  L 0.301035953686776 11.8527084601339  C 0.100345317895592 11.6628119293974  0 11.4254412659769  0 11.1405964698722  C 0 10.8610265773991  0.100345317895592 10.6210184621627  0.301035953686776 10.4205721241631  L 5.69591712370506 5.03225806451613  C 5.90188909201706 5.54919862040982  6.20424537883404 6.00679651044837  6.602985984156 6.40505173463177  Z M 12.9326630103595 3.67133292757152  C 12.9775543367865 3.7240819638872  13 3.7900182592818  13 3.86914181375533  C 13 4.07486305538649  12.9392646760106 4.35443294785961  12.8177940280317 4.70785149117468  C 12.5695713995531 5.41468857780483  12.1351817997156 5.98833434773788  11.5146252285192 6.42878880097383  C 10.8940686573228 6.86924325420978  10.2114564290067 7.08947048082775  9.46678854357099 7.08947048082775  C 8.48974202721918 7.08947048082775  7.65397115579931 6.74264556705214  6.9594759293114 6.04899573950091  C 6.26498070282348 5.35534591194968  5.91773308957952 4.52059241225401  5.91773308957952 3.54473524041388  C 5.91773308957952 2.56887806857375  6.26498070282348 1.73412456887807  6.9594759293114 1.04047474132684  C 7.65397115579931 0.346824913775613  8.48974202721918 0  9.46678854357099 0  C 9.77310582977859 0  10.0939467804184 0.0435179549604389  10.4293113954906 0.130553864881315  C 10.7646760105627 0.217589774802191  11.0485476335568 0.340231284236154  11.2809262644729 0.498478393183202  C 11.365427584806 0.556502333130451  11.4076782449726 0.630350983972407  11.4076782449726 0.720024345709069  C 11.4076782449726 0.809697707445729  11.365427584806 0.883546358287684  11.2809262644729 0.941570298234936  L 8.95978062157221 2.27875836883749  L 8.95978062157221 4.05112598904443  L 10.4887263863498 4.89774802191114  C 10.5151330489539 4.88192331101643  10.7237456835263 4.7540068979509  11.114564290067 4.51399878271455  C 11.5053828966078 4.27399066747819  11.8631931748934 4.06035707039968  12.1879951249238 3.873097991479  C 12.5127970749543 3.68583891255833  12.6989640463132 3.59220937309799  12.7464960390006 3.59220937309799  C 12.8257160268129 3.59220937309799  12.8877716839326 3.61858389125583  12.9326630103595 3.67133292757152  Z " fill-rule="nonzero" fill="#000000" stroke="none" transform="matrix(1 0 0 1 511 223 )" />
  </g>
</svg>