<?xml version="1.0" encoding="utf-8"?>
<svg version="1.1" xmlns:xlink="http://www.w3.org/1999/xlink" width="16px" height="15px" xmlns="http://www.w3.org/2000/svg">
  <g transform="matrix(1 0 0 1 0 -102 )">
    <path d="M 15.6467391304348 6.01251604621309  C 15.8822463768116 6.25320924261874  16 6.54364569961489  16 6.88382541720154  L 16 8.11617458279846  C 16 8.45635430038511  15.8822463768116 8.74679075738126  15.6467391304348 8.98748395378691  C 15.411231884058 9.22817715019255  15.1050724637681 9.34852374839538  14.7282608695652 9.34852374839538  L 7.07608695652174 9.34852374839538  L 10.2608695652174 12.1790757381258  C 10.536231884058 12.4101412066752  10.6739130434783 12.698973042362  10.6739130434783 13.0455712451861  C 10.6739130434783 13.3921694480103  10.536231884058 13.681001283697  10.2608695652174 13.9120667522465  L 9.44565217391304 14.6437740693196  C 9.17753623188406 14.8812580231065  8.85144927536232 15  8.46739130434783 15  C 8.09057971014493 15  7.76086956521739 14.8812580231065  7.47826086956522 14.6437740693196  L 0.402173913043478 8.36649550706033  C 0.134057971014493 8.12901155327343  0 7.84017971758665  0 7.5  C 0 7.16623876765083  0.134057971014493 6.87419768934531  0.402173913043478 6.62387676508344  L 7.47826086956522 0.365853658536586  C 7.7536231884058 0.121951219512194  8.08333333333333 0  8.46739130434783 0  C 8.84420289855072 0  9.17028985507246 0.121951219512194  9.44565217391304 0.365853658536586  L 10.2608695652174 1.0783055198973  C 10.536231884058 1.32220795892169  10.6739130434783 1.61424903722721  10.6739130434783 1.95442875481386  C 10.6739130434783 2.29460847240051  10.536231884058 2.58664955070603  10.2608695652174 2.83055198973042  L 7.07608695652174 5.65147625160462  L 14.7282608695652 5.65147625160462  C 15.1050724637681 5.65147625160462  15.411231884058 5.77182284980745  15.6467391304348 6.01251604621309  Z " fill-rule="nonzero" fill="#ffff00" stroke="none" fill-opacity="0" transform="matrix(1 0 0 1 0 102 )" />
  </g>
</svg>