<?xml version="1.0" encoding="utf-8"?>
<svg version="1.1" xmlns:xlink="http://www.w3.org/1999/xlink" width="24px" height="31px" xmlns="http://www.w3.org/2000/svg">
  <g transform="matrix(1 0 0 1 -978 -20 )">
    <path d="M 23.840625 22.4124348958333  C 23.946875 23.4282769097222  24 24.5080295138889  24 25.6516927083333  C 24 27.1182725694444  23.609375 28.3763020833333  22.828125 29.42578125  C 22.046875 30.4752604166667  21.10625 31  20.00625 31  L 3.99375 31  C 2.89375 31  1.953125 30.4752604166667  1.171875 29.42578125  C 0.390625 28.3763020833333  0 27.1182725694444  0 25.6516927083333  C 0 24.5080295138889  0.0531250000000001 23.4282769097222  0.159375 22.4124348958333  C 0.265625 21.3965928819444  0.4625 20.3740234375  0.75 19.3447265625  C 1.0375 18.3154296875  1.403125 17.4341362847222  1.846875 16.7008463541667  C 2.290625 15.9675564236111  2.878125 15.3688151041667  3.609375 14.9046223958333  C 4.340625 14.4404296875  5.18125 14.2083333333333  6.13125 14.2083333333333  C 7.76875 15.9305555555556  9.725 16.7916666666667  12 16.7916666666667  C 14.275 16.7916666666667  16.23125 15.9305555555556  17.86875 14.2083333333333  C 18.81875 14.2083333333333  19.659375 14.4404296875  20.390625 14.9046223958333  C 21.121875 15.3688151041667  21.709375 15.9675564236111  22.153125 16.7008463541667  C 22.596875 17.4341362847222  22.9625 18.3154296875  23.25 19.3447265625  C 23.5375 20.3740234375  23.734375 21.3965928819444  23.840625 22.4124348958333  Z M 17.090625 2.2705078125  C 18.496875 3.7841796875  19.2 5.61067708333333  19.2 7.75  C 19.2 9.88932291666667  18.496875 11.7158203125  17.090625 13.2294921875  C 15.684375 14.7431640625  13.9875 15.5  12 15.5  C 10.0125 15.5  8.315625 14.7431640625  6.909375 13.2294921875  C 5.503125 11.7158203125  4.8 9.88932291666667  4.8 7.75  C 4.8 5.61067708333333  5.503125 3.7841796875  6.909375 2.2705078125  C 8.315625 0.7568359375  10.0125 0  12 0  C 13.9875 0  15.684375 0.7568359375  17.090625 2.2705078125  Z " fill-rule="nonzero" fill="#6d000e" stroke="none" fill-opacity="0.623529411764706" transform="matrix(1 0 0 1 978 20 )" />
  </g>
</svg>