<?xml version="1.0" encoding="utf-8"?>
<svg version="1.1" xmlns:xlink="http://www.w3.org/1999/xlink" width="13px" height="9px" xmlns="http://www.w3.org/2000/svg">
  <g transform="matrix(1 0 0 1 -829 -32 )">
    <path d="M 12.0025111607143 8.12109375  C 12.0484561011905 8.08061079545455  12.0714285714286 8.03267045454546  12.0714285714286 7.97727272727273  L 12.0714285714286 3.06818181818182  C 11.9166666666667 3.22159090909091  11.7498139880952 3.36221590909091  11.5708705357143 3.49005681818182  C 10.2747395833333 4.36789772727273  9.24460565476191 5.08806818181818  8.48046875 5.65056818181818  C 8.23381696428571 5.83380681818182  8.03311011904762 5.9765625  7.87834821428571 6.07883522727273  C 7.72358630952381 6.18110795454545  7.51441592261905 6.28444602272727  7.25083705357143 6.38884943181818  C 6.98725818452381 6.49325284090909  6.73939732142857 6.54545454545455  6.50725446428571 6.54545454545455  L 6.5 6.54545454545455  L 6.49274553571429 6.54545454545455  C 6.26060267857143 6.54545454545455  6.01274181547619 6.49325284090909  5.74916294642857 6.38884943181818  C 5.48558407738095 6.28444602272727  5.27641369047619 6.18110795454545  5.12165178571429 6.07883522727273  C 4.96688988095238 5.9765625  4.76618303571429 5.83380681818182  4.51953125 5.65056818181818  C 3.7553943452381 5.08806818181818  2.72526041666667 4.36789772727273  1.42912946428571 3.49005681818182  C 1.25018601190476 3.36221590909091  1.08333333333333 3.22159090909091  0.928571428571428 3.06818181818182  L 0.928571428571428 7.97727272727273  C 0.928571428571428 8.03267045454546  0.951543898809524 8.08061079545455  0.997488839285714 8.12109375  C 1.0434337797619 8.16157670454545  1.09784226190476 8.18181818181818  1.16071428571429 8.18181818181818  L 11.8392857142857 8.18181818181818  C 11.9021577380952 8.18181818181818  11.9565662202381 8.16157670454545  12.0025111607143 8.12109375  Z M 11.7340959821429 2.09978693181818  C 11.958984375 1.79083806818182  12.0714285714286 1.51065340909091  12.0714285714286 1.25923295454545  L 12.0714285714286 1.18892045454545  L 12.0714285714286 1.10262784090909  C 12.0714285714286 1.10262784090909  12.0702194940476 1.07492897727273  12.0678013392857 1.01953125  C 12.0653831845238 0.964133522727272  12.0581287202381 0.937499999999999  12.0460379464286 0.939630681818182  C 12.033947172619 0.941761363636363  12.0206473214286 0.922585227272727  12.0061383928571 0.882102272727273  C 11.9916294642857 0.841619318181817  11.9698660714286 0.825639204545454  11.9408482142857 0.834161931818182  C 11.9118303571429 0.842684659090909  11.8779761904762 0.837357954545454  11.8392857142857 0.818181818181818  L 1.16071428571429 0.818181818181818  C 1.09784226190476 0.818181818181818  1.0434337797619 0.838423295454544  0.997488839285714 0.87890625  C 0.951543898809524 0.919389204545454  0.928571428571428 0.967329545454545  0.928571428571428 1.02272727272727  C 0.928571428571428 1.73863636363636  1.28404017857143 2.34375  1.99497767857143 2.83806818181818  C 2.92838541666667 3.48579545454545  3.89806547619048 4.16122159090909  4.90401785714286 4.86434659090909  C 4.93303571428571 4.88565340909091  5.01767113095238 4.94850852272727  5.15792410714286 5.05291193181818  C 5.29817708333333 5.15731534090909  5.40941220238095 5.23721590909091  5.49162946428571 5.29261363636364  C 5.57384672619048 5.34801136363636  5.68145461309524 5.41512784090909  5.814453125 5.49396306818182  C 5.94745163690476 5.57279829545455  6.06956845238095 5.63139204545455  6.18080357142857 5.66974431818182  C 6.29203869047619 5.70809659090909  6.3960193452381 5.72727272727273  6.49274553571429 5.72727272727273  L 6.5 5.72727272727273  L 6.50725446428571 5.72727272727273  C 6.60398065476191 5.72727272727273  6.70796130952381 5.70809659090909  6.81919642857143 5.66974431818182  C 6.93043154761905 5.63139204545455  7.05254836309524 5.57279829545455  7.185546875 5.49396306818182  C 7.31854538690476 5.41512784090909  7.42615327380952 5.34801136363636  7.50837053571429 5.29261363636364  C 7.59058779761905 5.23721590909091  7.70182291666667 5.15731534090909  7.84207589285714 5.05291193181818  C 7.98232886904762 4.94850852272727  8.06696428571429 4.88565340909091  8.09598214285714 4.86434659090909  C 9.10193452380952 4.16122159090909  10.0716145833333 3.48579545454545  11.0050223214286 2.83806818181818  C 11.2661830357143 2.65482954545455  11.5092075892857 2.40873579545455  11.7340959821429 2.09978693181818  Z M 12.6590401785714 0.300426136363636  C 12.8863467261905 0.500710227272727  13 0.741477272727273  13 1.02272727272727  L 13 7.97727272727273  C 13 8.25852272727273  12.8863467261905 8.49928977272727  12.6590401785714 8.69957386363636  C 12.4317336309524 8.89985795454545  12.1584821428571 9  11.8392857142857 9  L 1.16071428571429 9  C 0.841517857142857 9  0.568266369047619 8.89985795454545  0.340959821428571 8.69957386363636  C 0.113653273809524 8.49928977272727  0 8.25852272727273  0 7.97727272727273  L 0 1.02272727272727  C 0 0.741477272727273  0.113653273809524 0.500710227272727  0.340959821428571 0.300426136363636  C 0.568266369047619 0.100142045454544  0.841517857142857 0  1.16071428571429 0  L 11.8392857142857 0  C 12.1584821428571 0  12.4317336309524 0.100142045454544  12.6590401785714 0.300426136363636  Z " fill-rule="nonzero" fill="#f59a23" stroke="none" fill-opacity="0.756862745098039" transform="matrix(1 0 0 1 829 32 )" />
  </g>
</svg>