<?xml version="1.0" encoding="utf-8"?>
<svg version="1.1" xmlns:xlink="http://www.w3.org/1999/xlink" width="17px" height="22px" xmlns="http://www.w3.org/2000/svg">
  <g transform="matrix(1 0 0 1 -231 -31 )">
    <path d="M 3.59700520833333 8.90066964285714  C 5.11697048611111 9.25260416666667  6.75130208333333 9.42857142857143  8.5 9.42857142857143  C 10.2486979166667 9.42857142857143  11.8830295138889 9.25260416666667  13.4029947916667 8.90066964285714  C 14.9229600694444 8.54873511904762  16.1219618055556 8.02901785714286  17 7.34151785714286  L 17 9.42857142857143  C 17 9.99330357142857  16.6200086805556 10.5171130952381  15.8600260416667 11  C 15.1000434027778 11.4828869047619  14.0670572916667 11.8655133928571  12.7610677083333 12.1478794642857  C 11.455078125 12.4302455357143  10.0347222222222 12.5714285714286  8.5 12.5714285714286  C 6.96527777777778 12.5714285714286  5.544921875 12.4302455357143  4.23893229166667 12.1478794642857  C 2.93294270833333 11.8655133928571  1.89995659722222 11.4828869047619  1.13997395833333 11  C 0.379991319444444 10.5171130952381  0 9.99330357142857  0 9.42857142857143  L 0 7.34151785714286  C 0.878038194444445 8.02901785714286  2.07703993055556 8.54873511904762  3.59700520833333 8.90066964285714  Z M 3.59700520833333 18.3292410714286  C 5.11697048611111 18.6811755952381  6.75130208333333 18.8571428571429  8.5 18.8571428571429  C 10.2486979166667 18.8571428571429  11.8830295138889 18.6811755952381  13.4029947916667 18.3292410714286  C 14.9229600694444 17.977306547619  16.1219618055556 17.4575892857143  17 16.7700892857143  L 17 18.8571428571429  C 17 19.421875  16.6200086805556 19.9456845238095  15.8600260416667 20.4285714285714  C 15.1000434027778 20.9114583333333  14.0670572916667 21.2940848214286  12.7610677083333 21.5764508928571  C 11.455078125 21.8588169642857  10.0347222222222 22  8.5 22  C 6.96527777777778 22  5.544921875 21.8588169642857  4.23893229166667 21.5764508928571  C 2.93294270833333 21.2940848214286  1.89995659722222 20.9114583333333  1.13997395833333 20.4285714285714  C 0.379991319444444 19.9456845238095  0 19.421875  0 18.8571428571429  L 0 16.7700892857143  C 0.878038194444445 17.4575892857143  2.07703993055556 17.977306547619  3.59700520833333 18.3292410714286  Z M 3.59700520833333 13.6149553571429  C 5.11697048611111 13.9668898809524  6.75130208333333 14.1428571428571  8.5 14.1428571428571  C 10.2486979166667 14.1428571428571  11.8830295138889 13.9668898809524  13.4029947916667 13.6149553571429  C 14.9229600694444 13.2630208333333  16.1219618055556 12.7433035714286  17 12.0558035714286  L 17 14.1428571428571  C 17 14.7075892857143  16.6200086805556 15.2313988095238  15.8600260416667 15.7142857142857  C 15.1000434027778 16.1971726190476  14.0670572916667 16.5797991071429  12.7610677083333 16.8621651785714  C 11.455078125 17.14453125  10.0347222222222 17.2857142857143  8.5 17.2857142857143  C 6.96527777777778 17.2857142857143  5.544921875 17.14453125  4.23893229166667 16.8621651785714  C 2.93294270833333 16.5797991071429  1.89995659722222 16.1971726190476  1.13997395833333 15.7142857142857  C 0.379991319444444 15.2313988095238  0 14.7075892857143  0 14.1428571428571  L 0 12.0558035714286  C 0.878038194444445 12.7433035714286  2.07703993055556 13.2630208333333  3.59700520833333 13.6149553571429  Z M 4.23893229166667 0.423549107142856  C 5.544921875 0.141183035714285  6.96527777777778 0  8.5 0  C 10.0347222222222 0  11.455078125 0.141183035714285  12.7610677083333 0.423549107142856  C 14.0670572916667 0.705915178571429  15.1000434027778 1.08854166666667  15.8600260416667 1.57142857142857  C 16.6200086805556 2.05431547619048  17 2.578125  17 3.14285714285714  L 17 4.71428571428571  C 17 5.27901785714286  16.6200086805556 5.80282738095238  15.8600260416667 6.28571428571429  C 15.1000434027778 6.76860119047619  14.0670572916667 7.15122767857143  12.7610677083333 7.43359375  C 11.455078125 7.71595982142857  10.0347222222222 7.85714285714286  8.5 7.85714285714286  C 6.96527777777778 7.85714285714286  5.544921875 7.71595982142857  4.23893229166667 7.43359375  C 2.93294270833333 7.15122767857143  1.89995659722222 6.76860119047619  1.13997395833333 6.28571428571429  C 0.379991319444444 5.80282738095238  0 5.27901785714286  0 4.71428571428571  L 0 3.14285714285714  C 0 2.578125  0.379991319444444 2.05431547619048  1.13997395833333 1.57142857142857  C 1.89995659722222 1.08854166666667  2.93294270833333 0.705915178571429  4.23893229166667 0.423549107142856  Z " fill-rule="nonzero" fill="#b8741a" stroke="none" fill-opacity="0.447058823529412" transform="matrix(1 0 0 1 231 31 )" />
  </g>
</svg>