<?xml version="1.0" encoding="utf-8"?>
<svg version="1.1" xmlns:xlink="http://www.w3.org/1999/xlink" width="17px" height="19px" xmlns="http://www.w3.org/2000/svg">
  <g transform="matrix(1 0 0 1 -153 -167 )">
    <path d="M 10.42578125 11.65234375  C 11.3214142628205 10.6513421474359  11.7692307692308 9.44671474358974  11.7692307692308 8.03846153846154  C 11.7692307692308 6.63020833333333  11.3214142628205 5.42558092948718  10.42578125 4.42457932692308  C 9.53014823717949 3.42357772435897  8.45232371794872 2.92307692307692  7.19230769230769 2.92307692307692  C 5.93229166666667 2.92307692307692  4.8544671474359 3.42357772435897  3.95883413461538 4.42457932692308  C 3.06320112179487 5.42558092948718  2.61538461538462 6.63020833333333  2.61538461538462 8.03846153846154  C 2.61538461538462 9.44671474358974  3.06320112179487 10.6513421474359  3.95883413461538 11.65234375  C 4.8544671474359 12.6533453525641  5.93229166666667 13.1538461538462  7.19230769230769 13.1538461538462  C 8.45232371794872 13.1538461538462  9.53014823717949 12.6533453525641  10.42578125 11.65234375  Z M 16.6219951923077 16.5108173076923  C 16.8739983974359 16.7924679487179  17 17.135016025641  17 17.5384615384615  C 17 17.9342948717949  16.8705929487179 18.2768429487179  16.6117788461538 18.5661057692308  C 16.3529647435897 18.8553685897436  16.0464743589744 19  15.6923076923077 19  C 15.3245192307692 19  15.0180288461538 18.8553685897436  14.7728365384615 18.5661057692308  L 11.2686298076923 14.6610576923077  C 10.0494791666667 15.604967948718  8.69070512820513 16.0769230769231  7.19230769230769 16.0769230769231  C 6.21834935897436 16.0769230769231  5.28695913461538 15.8656850961538  4.39813701923077 15.4432091346154  C 3.50931490384615 15.0207331730769  2.74308894230769 14.4498197115385  2.09945913461538 13.73046875  C 1.45582932692308 13.0111177884615  0.945012019230769 12.1547475961538  0.567007211538462 11.1613581730769  C 0.189002403846154 10.16796875  0 9.1270032051282  0 8.03846153846154  C 0 6.94991987179487  0.189002403846154 5.90895432692308  0.567007211538462 4.91556490384615  C 0.945012019230769 3.92217548076923  1.45582932692308 3.06580528846154  2.09945913461538 2.34645432692308  C 2.74308894230769 1.62710336538462  3.50931490384615 1.05618990384615  4.39813701923077 0.633713942307693  C 5.28695913461538 0.21123798076923  6.21834935897436 0  7.19230769230769 0  C 8.16626602564103 0  9.09765625 0.21123798076923  9.98647836538462 0.633713942307693  C 10.8753004807692 1.05618990384615  11.6415264423077 1.62710336538462  12.28515625 2.34645432692308  C 12.9287860576923 3.06580528846154  13.4396033653846 3.92217548076923  13.8176081730769 4.91556490384615  C 14.1956129807692 5.90895432692308  14.3846153846154 6.94991987179487  14.3846153846154 8.03846153846154  C 14.3846153846154 9.71314102564103  13.9623397435897 11.2317708333333  13.1177884615385 12.5943509615385  L 16.6219951923077 16.5108173076923  Z " fill-rule="nonzero" fill="#000000" stroke="none" transform="matrix(1 0 0 1 153 167 )" />
  </g>
</svg>