<?xml version="1.0" encoding="utf-8"?>
<svg version="1.1" xmlns:xlink="http://www.w3.org/1999/xlink" width="5px" height="18px" xmlns="http://www.w3.org/2000/svg">
  <g transform="matrix(1 0 0 1 -512 -254 )">
    <path d="M 4.43946188340807 13.7428977272727  C 4.58146487294469 13.9048295454545  4.652466367713 14.0965909090909  4.652466367713 14.3181818181818  L 4.652466367713 17.1818181818182  C 4.652466367713 17.4034090909091  4.58146487294469 17.5951704545455  4.43946188340807 17.7571022727273  C 4.29745889387145 17.9190340909091  4.12929745889387 18  3.93497757847534 18  L 1.06502242152466 18  C 0.870702541106129 18  0.70254110612855 17.9190340909091  0.560538116591928 17.7571022727273  C 0.418535127055306 17.5951704545455  0.347533632286996 17.4034090909091  0.347533632286996 17.1818181818182  L 0.347533632286996 14.3181818181818  C 0.347533632286996 14.0965909090909  0.418535127055306 13.9048295454545  0.560538116591928 13.7428977272727  C 0.70254110612855 13.5809659090909  0.870702541106129 13.5  1.06502242152466 13.5  L 3.93497757847534 13.5  C 4.12929745889387 13.5  4.29745889387145 13.5809659090909  4.43946188340807 13.7428977272727  Z M 4.79260089686099 0.242897727272728  C 4.93086696562033 0.404829545454543  4.99626307922272 0.596590909090908  4.98878923766816 0.818181818181817  L 4.67488789237668 10.6363636363636  C 4.66741405082212 10.8579545454545  4.59080717488789 11.0497159090909  4.44506726457399 11.2116477272727  C 4.29932735426009 11.3735795454545  4.12929745889387 11.4545454545455  3.93497757847534 11.4545454545455  L 1.06502242152466 11.4545454545455  C 0.870702541106129 11.4545454545455  0.70067264573991 11.3735795454545  0.554932735426009 11.2116477272727  C 0.409192825112108 11.0497159090909  0.332585949177878 10.8579545454545  0.325112107623318 10.6363636363636  L 0.0112107623318386 0.818181818181817  C 0.00373692077727963 0.596590909090908  0.0691330343796712 0.404829545454543  0.207399103139013 0.242897727272728  C 0.345665171898356 0.0809659090909074  0.511958146487295 0  0.70627802690583 0  L 4.29372197309417 0  C 4.48804185351271 0  4.65433482810164 0.0809659090909074  4.79260089686099 0.242897727272728  Z " fill-rule="nonzero" fill="#d9001b" stroke="none" fill-opacity="0.980392156862745" transform="matrix(1 0 0 1 512 254 )" />
  </g>
</svg>