<?xml version="1.0" encoding="utf-8"?>
<svg version="1.1" xmlns:xlink="http://www.w3.org/1999/xlink" width="18px" height="18px" xmlns="http://www.w3.org/2000/svg">
  <g transform="matrix(1 0 0 1 -525 -254 )">
    <path d="M 9 17.1964285714286  C 9.11538461538462 17.1964285714286  9.17307692307693 17.1428571428571  9.17307692307692 17.0357142857143  C 9.17307692307693 16.9285714285714  9.11538461538462 16.875  9 16.875  C 8.57451923076923 16.875  8.20853365384616 16.7327008928571  7.90204326923077 16.4481026785714  C 7.59555288461539 16.1635044642857  7.44230769230769 15.8236607142857  7.44230769230769 15.4285714285714  C 7.44230769230769 15.3214285714286  7.38461538461539 15.2678571428571  7.26923076923077 15.2678571428571  C 7.15384615384615 15.2678571428571  7.09615384615385 15.3214285714286  7.09615384615385 15.4285714285714  C 7.09615384615385 15.9174107142857  7.28185096153846 16.3342633928571  7.65324519230769 16.6791294642857  C 8.02463942307692 17.0239955357143  8.47355769230769 17.1964285714286  9 17.1964285714286  Z M 4.84615384615385 5.78571428571428  C 4.84615384615385 9.34821428571429  3.88701923076923 12.1339285714286  1.96875 14  L 16.03125 14  C 14.1129807692308 12.1339285714286  13.1538461538462 9.34821428571429  13.1538461538462 5.78571428571428  C 13.1538461538462 5.44419642857143  13.0673076923077 5.09263392857143  12.8942307692308 4.73102678571428  C 12.7211538461538 4.36941964285714  12.4723557692308 4.02455357142857  12.1478365384615 3.69642857142857  C 11.8233173076923 3.36830357142857  11.3852163461538 3.09877232142857  10.8335336538462 2.88783482142857  C 10.2818509615385 2.67689732142857  9.67067307692308 2.57142857142857  9 2.57142857142857  C 8.32932692307692 2.57142857142857  7.71814903846154 2.67689732142857  7.16646634615385 2.88783482142857  C 6.61478365384615 3.09877232142857  6.17668269230769 3.36830357142857  5.85216346153846 3.69642857142857  C 5.52764423076923 4.02455357142857  5.27884615384615 4.36941964285714  5.10576923076923 4.73102678571428  C 4.93269230769231 5.09263392857143  4.84615384615385 5.44419642857143  4.84615384615385 5.78571428571428  Z M 17.015625 13.2589285714286  C 17.3112980769231 13.5669642857143  17.6394230769231 13.8616071428571  18 14.1428571428571  C 18 14.4910714285714  17.8629807692308 14.7924107142857  17.5889423076923 15.046875  C 17.3149038461538 15.3013392857143  16.9903846153846 15.4285714285714  16.6153846153846 15.4285714285714  L 11.7692307692308 15.4285714285714  C 11.7692307692308 16.1383928571429  11.4987980769231 16.7444196428571  10.9579326923077 17.2466517857143  C 10.4170673076923 17.7488839285714  9.76442307692308 18  9 18  C 8.23557692307692 18  7.58293269230769 17.7488839285714  7.04206730769231 17.2466517857143  C 6.50120192307692 16.7444196428571  6.23076923076923 16.1383928571429  6.23076923076923 15.4285714285714  L 1.38461538461538 15.4285714285714  C 1.00961538461538 15.4285714285714  0.685096153846154 15.3013392857143  0.411057692307692 15.046875  C 0.137019230769231 14.7924107142857  0 14.4910714285714  0 14.1428571428571  C 0.360576923076923 13.8616071428571  0.688701923076923 13.5669642857143  0.984375 13.2589285714286  C 1.28004807692308 12.9508928571429  1.58653846153846 12.55078125  1.90384615384615 12.05859375  C 2.22115384615385 11.56640625  2.48978365384615 11.0357142857143  2.70973557692308 10.4665178571429  C 2.9296875 9.89732142857143  3.10997596153846 9.20758928571429  3.25060096153846 8.39732142857143  C 3.39122596153846 7.58705357142857  3.46153846153846 6.71651785714286  3.46153846153846 5.78571428571428  C 3.46153846153846 4.76785714285714  3.88341346153846 3.82198660714286  4.72716346153846 2.94810267857143  C 5.57091346153846 2.07421875  6.67788461538462 1.54352678571428  8.04807692307692 1.35602678571429  C 7.99038461538462 1.22879464285714  7.96153846153846 1.09821428571429  7.96153846153846 0.964285714285715  C 7.96153846153846 0.696428571428571  8.0625 0.468749999999999  8.26442307692308 0.28125  C 8.46634615384616 0.0937500000000007  8.71153846153846 0  9 0  C 9.28846153846154 0  9.53365384615385 0.0937500000000007  9.73557692307692 0.28125  C 9.9375 0.468749999999999  10.0384615384615 0.696428571428571  10.0384615384615 0.964285714285715  C 10.0384615384615 1.09821428571429  10.0096153846154 1.22879464285714  9.95192307692308 1.35602678571429  C 11.3221153846154 1.54352678571428  12.4290865384615 2.07421875  13.2728365384615 2.94810267857143  C 14.1165865384615 3.82198660714286  14.5384615384615 4.76785714285714  14.5384615384615 5.78571428571428  C 14.5384615384615 6.71651785714286  14.6087740384615 7.58705357142857  14.7493990384615 8.39732142857143  C 14.8900240384615 9.20758928571429  15.0703125 9.89732142857143  15.2902644230769 10.4665178571429  C 15.5102163461538 11.0357142857143  15.7788461538462 11.56640625  16.0961538461538 12.05859375  C 16.4134615384615 12.55078125  16.7199519230769 12.9508928571429  17.015625 13.2589285714286  Z " fill-rule="nonzero" fill="#008080" stroke="none" fill-opacity="0.729411764705882" transform="matrix(1 0 0 1 525 254 )" />
  </g>
</svg>