<?xml version="1.0" encoding="utf-8"?>
<svg version="1.1" xmlns:xlink="http://www.w3.org/1999/xlink" width="10px" height="11px" xmlns="http://www.w3.org/2000/svg">
  <g transform="matrix(1 0 0 1 -496 -312 )">
    <path d="M 9.79166666666667 0.785714285714285  L 9.16666666666667 0.785714285714285  C 9.16666666666667 1.85379464285714  8.935546875 2.79808407738095  8.47330729166667 3.61858258928571  C 8.01106770833333 4.43908110119048  7.43272569444445 5.06622023809524  6.73828125 5.5  C 7.43272569444445 5.93377976190476  8.01106770833333 6.56091889880952  8.47330729166667 7.38141741071429  C 8.935546875 8.20191592261905  9.16666666666667 9.14620535714286  9.16666666666667 10.2142857142857  L 9.79166666666667 10.2142857142857  C 9.85243055555556 10.2142857142857  9.90234375 10.2327008928571  9.94140625 10.26953125  C 9.98046875 10.3063616071429  10 10.3534226190476  10 10.4107142857143  L 10 10.8035714285714  C 10 10.8608630952381  9.98046875 10.9079241071429  9.94140625 10.9447544642857  C 9.90234375 10.9815848214286  9.85243055555556 11  9.79166666666667 11  L 0.208333333333333 11  C 0.147569444444444 11  0.09765625 10.9815848214286  0.05859375 10.9447544642857  C 0.01953125 10.9079241071429  0 10.8608630952381  0 10.8035714285714  L 0 10.4107142857143  C 0 10.3534226190476  0.01953125 10.3063616071429  0.05859375 10.26953125  C 0.09765625 10.2327008928571  0.147569444444444 10.2142857142857  0.208333333333333 10.2142857142857  L 0.833333333333333 10.2142857142857  C 0.833333333333333 9.14620535714286  1.064453125 8.20191592261905  1.52669270833333 7.38141741071429  C 1.98893229166667 6.56091889880952  2.56727430555556 5.93377976190476  3.26171875 5.5  C 2.56727430555556 5.06622023809524  1.98893229166667 4.43908110119048  1.52669270833333 3.61858258928571  C 1.064453125 2.79808407738095  0.833333333333333 1.85379464285714  0.833333333333333 0.785714285714285  L 0.208333333333333 0.785714285714285  C 0.147569444444444 0.785714285714285  0.09765625 0.767299107142857  0.05859375 0.73046875  C 0.01953125 0.693638392857143  0 0.64657738095238  0 0.589285714285715  L 0 0.196428571428572  C 0 0.139136904761904  0.01953125 0.0920758928571427  0.05859375 0.0552455357142854  C 0.09765625 0.018415178571428  0.147569444444444 0  0.208333333333333 0  L 9.79166666666667 0  C 9.85243055555556 0  9.90234375 0.018415178571428  9.94140625 0.0552455357142854  C 9.98046875 0.0920758928571427  10 0.139136904761904  10 0.196428571428572  L 10 0.589285714285715  C 10 0.64657738095238  9.98046875 0.693638392857143  9.94140625 0.73046875  C 9.90234375 0.767299107142857  9.85243055555556 0.785714285714285  9.79166666666667 0.785714285714285  Z M 7.77994791666667 3.14285714285714  C 8.14887152777778 2.41443452380952  8.33333333333333 1.62872023809524  8.33333333333333 0.785714285714285  L 1.66666666666667 0.785714285714285  C 1.66666666666667 1.62872023809524  1.85112847222222 2.41443452380952  2.22005208333333 3.14285714285714  L 7.77994791666667 3.14285714285714  Z M 2.03776041666667 8.25  L 7.96223958333333 8.25  C 7.72786458333333 7.67299107142857  7.412109375 7.17885044642857  7.01497395833333 6.767578125  C 6.61783854166667 6.35630580357143  6.19574652777778 6.06473214285714  5.74869791666667 5.89285714285714  L 4.25130208333333 5.89285714285714  C 3.80425347222222 6.06473214285714  3.38216145833333 6.35630580357143  2.98502604166667 6.767578125  C 2.587890625 7.17885044642857  2.27213541666667 7.67299107142857  2.03776041666667 8.25  Z " fill-rule="nonzero" fill="#d9001b" stroke="none" fill-opacity="0.776470588235294" transform="matrix(1 0 0 1 496 312 )" />
  </g>
</svg>