<?xml version="1.0" encoding="utf-8"?>
<svg version="1.1" xmlns:xlink="http://www.w3.org/1999/xlink" width="30px" height="34px" xmlns="http://www.w3.org/2000/svg">
  <g transform="matrix(1 0 0 1 -978 -428 )">
    <path d="M 29.4034090909091 13.0397727272727  C 29.8011363636364 13.4905303030303  30 14.0378787878788  30 14.6818181818182  L 30 19.3181818181818  C 30 19.9621212121212  29.8011363636364 20.5094696969697  29.4034090909091 20.9602272727273  C 29.0056818181818 21.4109848484848  28.5227272727273 21.6363636363636  27.9545454545455 21.6363636363636  L 19 21.6363636363636  L 19 31.6818181818182  C 19.0909090909091 32.3257575757576  18.8920454545455 32.8731060606061  18.4943181818182 33.3238636363636  C 18.0965909090909 33.7746212121212  17.6136363636364 34  17.0454545454545 34  L 12.9545454545455 34  C 12.3863636363636 34  11.9034090909091 33.7746212121212  11.5056818181818 33.3238636363636  C 11.1079545454545 32.8731060606061  10.9090909090909 32.3257575757576  11 31.6818181818182  L 11 21.6363636363636  L 2.04545454545455 21.6363636363636  C 1.47727272727273 21.6363636363636  0.994318181818182 21.4109848484848  0.596590909090909 20.9602272727273  C 0.198863636363636 20.5094696969697  0 19.9621212121212  0 19.3181818181818  L 0 14.6818181818182  C 0 14.0378787878788  0.198863636363636 13.4905303030303  0.596590909090909 13.0397727272727  C 0.994318181818182 12.5890151515152  1.47727272727273 12.3636363636364  2.04545454545455 12.3636363636364  L 11 12.3636363636364  L 11 2.31818181818182  C 10.9090909090909 1.67424242424242  11.1079545454545 1.12689393939394  11.5056818181818 0.676136363636364  C 11.9034090909091 0.225378787878787  12.3863636363636 0  12.9545454545455 0  L 17.0454545454545 0  C 17.6136363636364 0  18.0965909090909 0.225378787878787  18.4943181818182 0.676136363636364  C 18.8920454545455 1.12689393939394  19.0909090909091 1.67424242424242  19 2.31818181818182  L 19 12.3636363636364  L 27.9545454545455 12.3636363636364  C 28.5227272727273 12.3636363636364  29.0056818181818 12.5890151515152  29.4034090909091 13.0397727272727  Z " fill-rule="nonzero" fill="#7f7f7f" stroke="none" fill-opacity="0.819607843137255" transform="matrix(1 0 0 1 978 428 )" />
  </g>
</svg>